<?xml version="1.0" encoding="UTF-8" standalone="no"?><!DOCTYPE svg PUBLIC "-//W3C//DTD SVG 1.1//EN" "http://www.w3.org/Graphics/SVG/1.1/DTD/svg11.dtd"><svg width="100%" height="100%" viewBox="0 0 434 71" version="1.1" xmlns="http://www.w3.org/2000/svg" xmlns:xlink="http://www.w3.org/1999/xlink" xml:space="preserve" xmlns:serif="http://www.serif.com/" style="fill-rule:evenodd;clip-rule:evenodd;stroke-linejoin:round;stroke-miterlimit:2;"><g><g><path d="M7.17,44.283c-4.313,-1.365 -7.223,-5.307 -7.169,-9.712c0.055,-4.431 3.533,-8.898 8.223,-9.561c2.562,-0.362 5.001,-0.084 7.175,1.393c1.859,1.264 3.195,2.978 3.842,5.158c0.173,0.583 0.449,0.76 1.045,0.753c2.922,-0.033 5.845,-0.033 8.768,-0.012c0.601,0.004 0.87,-0.216 1.055,-0.782c1.52,-4.649 6.464,-7.461 11.259,-6.568c3.854,0.718 6.341,2.978 7.768,6.508c0.262,0.649 0.633,0.823 1.226,0.825c1.103,0.004 2.206,0.013 3.309,0.014c1.709,0.002 3.419,-0.001 5.128,-0.004c0.992,-0.002 0.994,-0.002 1.308,-0.932c0.683,-2.022 1.93,-3.632 3.665,-4.839c5.616,-3.907 13.502,-0.913 15.145,5.73c1.374,5.559 -2.305,11.241 -7.914,12.218c-4.433,0.773 -8.563,-1.424 -10.585,-5.61c-0.269,-0.556 -0.326,-1.349 -0.854,-1.611c-0.489,-0.242 -1.185,-0.073 -1.789,-0.074c-2.5,-0.003 -5,0.016 -7.499,-0.016c-0.605,-0.008 -0.922,0.169 -1.138,0.752c-0.988,2.658 -2.801,4.61 -5.346,5.816c-3.393,1.609 -7.911,1.293 -10.987,-1.758c-1.237,-1.227 -2.247,-2.571 -2.822,-4.218c-0.153,-0.438 -0.406,-0.582 -0.857,-0.58c-3.014,0.013 -6.029,0.012 -9.044,-0.006c-0.48,-0.003 -0.691,0.17 -0.872,0.621c-1.498,3.732 -4.093,6.175 -8.182,6.782c-1.284,0.191 -2.564,0.101 -3.857,-0.288Z" style="fill-rule:nonzero;"/><path d="M12.718,6.122c1.567,-3.406 4.099,-5.513 7.826,-6.004c6.064,-0.798 10.199,3.537 11.095,7.482c0.596,2.625 0.184,5.111 -1.145,7.434c-0.267,0.466 -0.215,0.761 0.087,1.165c1.673,2.235 3.319,4.491 4.976,6.738c0.441,0.598 0.436,0.732 -0.207,1.102c-0.924,0.532 -1.822,1.102 -2.698,1.709c-0.618,0.428 -0.65,0.416 -1.095,-0.179c-1.486,-1.986 -2.968,-3.975 -4.451,-5.962c-0.565,-0.756 -0.565,-0.756 -1.415,-0.377c-4.409,1.968 -9.744,0.239 -12.243,-3.948c-1.012,-1.696 -1.599,-3.508 -1.545,-5.487c0.035,-1.253 0.294,-2.475 0.815,-3.673Z" style="fill-rule:nonzero;"/><path d="M44.595,24.487c-1.276,-0.731 -1.285,-0.737 -0.487,-1.876c1.443,-2.062 2.877,-4.132 4.362,-6.164c0.426,-0.583 0.418,-1.081 0.112,-1.671c-0.518,-1 -0.912,-2.047 -1.092,-3.164c-0.929,-5.74 2.923,-10.401 7.789,-11.398c5.237,-1.073 10.27,1.985 11.695,7.129c0.955,3.447 0.095,6.573 -2.19,9.255c-3.006,3.528 -7.423,4.239 -11.477,2.569c-0.538,-0.221 -0.81,-0.108 -1.134,0.349c-1.479,2.082 -2.985,4.144 -4.56,6.156c-0.332,0.424 -0.597,0.423 -1.002,0.136c-0.644,-0.456 -1.318,-0.869 -2.014,-1.321Z" style="fill-rule:nonzero;"/><path d="M24.33,69.154c-4.883,1.1 -8.881,-1.114 -11.084,-4.85c-3.274,-5.553 -0.184,-13.726 7.312,-14.696c1.906,-0.247 3.74,-0 5.496,0.764c0.439,0.191 0.661,0.061 0.91,-0.282c1.503,-2.066 3.019,-4.121 4.533,-6.179c0.434,-0.59 0.459,-0.604 1.045,-0.206c0.93,0.631 1.92,1.155 2.907,1.687c0.175,0.094 0.377,0.155 0.51,0.364c-0.129,0.395 -0.431,0.697 -0.673,1.032c-1.562,2.159 -3.125,4.316 -4.707,6.461c-0.287,0.388 -0.339,0.707 -0.092,1.144c0.972,1.727 1.563,3.561 1.426,5.575c-0.297,4.368 -3.304,8.025 -7.583,9.188Z" style="fill-rule:nonzero;"/><path d="M47.735,43.963c1.521,2.009 3.026,3.981 4.509,5.97c0.283,0.38 0.572,0.547 1.022,0.344c1.847,-0.834 3.809,-0.687 5.751,-0.64c1.189,0.029 2.251,0.55 3.244,1.143c3.354,2.004 5.069,5.004 5.049,8.894c-0.024,4.559 -3.645,8.835 -8.118,9.575c-6.342,1.05 -10.942,-3.318 -11.734,-8.319c-0.314,-1.98 -0.079,-3.947 0.898,-5.726c0.583,-1.061 0.586,-1.853 -0.224,-2.848c-1.553,-1.907 -2.945,-3.945 -4.396,-5.935c-0.487,-0.668 -0.476,-0.689 0.264,-1.08c0.864,-0.457 1.635,-1.057 2.455,-1.581c0.716,-0.457 0.718,-0.454 1.281,0.203Z" style="fill-rule:nonzero;"/></g><g><path d="M91.674,26.264l-8.346,-25.2l4.83,0l7.457,22.781l-2.418,0l7.759,-22.781l4.332,0l7.51,22.781l-2.331,0l7.619,-22.781l4.459,0l-8.346,25.2l-4.971,0l-6.886,-20.558l1.319,0l-6.986,20.558l-5.002,0Z" style="fill-rule:nonzero;"/><path d="M125.671,26.264l0,-25.2l18.384,0l0,3.932l-13.731,0l0,17.336l14.23,0l0,3.932l-18.883,0Zm4.297,-10.88l0,-3.832l12.548,0l0,3.832l-12.548,0Z" style="fill-rule:nonzero;"/><path d="M149.085,26.264l0,-25.2l4.672,0l0,21.245l13.163,0l0,3.955l-17.835,0Z" style="fill-rule:nonzero;"/><path d="M169.919,26.264l0,-25.2l4.672,0l0,21.245l13.163,0l0,3.955l-17.835,0Z" style="fill-rule:nonzero;"/><path d="M190.752,26.264l0,-25.2l3.85,0l15.794,19.411l-1.924,0l0,-19.411l4.644,0l0,25.2l-3.85,0l-15.793,-19.411l1.923,0l0,19.411l-4.644,0Z" style="fill-rule:nonzero;"/><path d="M219.196,26.264l0,-25.2l18.384,0l0,3.932l-13.731,0l0,17.336l14.23,0l0,3.932l-18.883,0Zm4.297,-10.88l0,-3.832l12.548,0l0,3.832l-12.548,0Z" style="fill-rule:nonzero;"/><path d="M250.407,26.621c-1.966,0 -3.849,-0.282 -5.65,-0.845c-1.801,-0.564 -3.233,-1.292 -4.296,-2.185l1.639,-3.622c1.012,0.801 2.261,1.463 3.747,1.988c1.486,0.524 3.009,0.787 4.569,0.787c1.317,0 2.382,-0.143 3.195,-0.428c0.813,-0.286 1.411,-0.677 1.794,-1.173c0.383,-0.497 0.575,-1.056 0.575,-1.678c0,-0.77 -0.273,-1.386 -0.819,-1.848c-0.546,-0.463 -1.259,-0.836 -2.139,-1.12c-0.88,-0.284 -1.854,-0.544 -2.922,-0.78c-1.068,-0.235 -2.136,-0.516 -3.205,-0.841c-1.069,-0.326 -2.044,-0.749 -2.924,-1.269c-0.88,-0.521 -1.593,-1.21 -2.139,-2.068c-0.546,-0.858 -0.819,-1.959 -0.819,-3.303c0,-1.372 0.365,-2.627 1.095,-3.765c0.73,-1.138 1.844,-2.049 3.344,-2.733c1.5,-0.684 3.399,-1.027 5.699,-1.027c1.516,0 3.018,0.19 4.507,0.571c1.489,0.381 2.789,0.933 3.9,1.656l-1.49,3.648c-1.123,-0.687 -2.282,-1.191 -3.477,-1.514c-1.195,-0.323 -2.355,-0.484 -3.48,-0.484c-1.276,0 -2.321,0.156 -3.135,0.467c-0.814,0.311 -1.407,0.723 -1.778,1.234c-0.371,0.512 -0.557,1.089 -0.557,1.732c0,0.766 0.273,1.38 0.819,1.841c0.546,0.461 1.259,0.828 2.139,1.1c0.88,0.272 1.855,0.531 2.924,0.775c1.069,0.244 2.137,0.524 3.205,0.839c1.068,0.315 2.042,0.728 2.922,1.238c0.88,0.51 1.593,1.194 2.139,2.05c0.546,0.857 0.819,1.945 0.819,3.265c0,1.348 -0.37,2.591 -1.11,3.729c-0.74,1.138 -1.865,2.049 -3.373,2.735c-1.509,0.686 -3.414,1.029 -5.717,1.029Z" style="fill-rule:nonzero;"/><path d="M272.336,26.621c-1.966,0 -3.849,-0.282 -5.65,-0.845c-1.801,-0.564 -3.233,-1.292 -4.296,-2.185l1.639,-3.622c1.012,0.801 2.261,1.463 3.747,1.988c1.487,0.524 3.009,0.787 4.569,0.787c1.317,0 2.382,-0.143 3.195,-0.428c0.813,-0.286 1.411,-0.677 1.794,-1.173c0.383,-0.497 0.575,-1.056 0.575,-1.678c0,-0.77 -0.273,-1.386 -0.819,-1.848c-0.546,-0.463 -1.259,-0.836 -2.139,-1.12c-0.88,-0.284 -1.854,-0.544 -2.922,-0.78c-1.068,-0.235 -2.136,-0.516 -3.205,-0.841c-1.069,-0.326 -2.044,-0.749 -2.924,-1.269c-0.88,-0.521 -1.593,-1.21 -2.139,-2.068c-0.546,-0.858 -0.819,-1.959 -0.819,-3.303c0,-1.372 0.365,-2.627 1.095,-3.765c0.73,-1.138 1.844,-2.049 3.344,-2.733c1.5,-0.684 3.399,-1.027 5.699,-1.027c1.516,0 3.018,0.19 4.507,0.571c1.489,0.381 2.789,0.933 3.9,1.656l-1.49,3.648c-1.123,-0.687 -2.282,-1.191 -3.477,-1.514c-1.195,-0.323 -2.355,-0.484 -3.48,-0.484c-1.276,0 -2.321,0.156 -3.135,0.467c-0.815,0.311 -1.407,0.723 -1.778,1.234c-0.371,0.512 -0.557,1.089 -0.557,1.732c0,0.766 0.273,1.38 0.819,1.841c0.546,0.461 1.259,0.828 2.139,1.1c0.88,0.272 1.855,0.531 2.924,0.775c1.069,0.244 2.137,0.524 3.205,0.839c1.068,0.315 2.042,0.728 2.922,1.238c0.88,0.51 1.593,1.194 2.139,2.05c0.546,0.857 0.819,1.945 0.819,3.265c0,1.348 -0.37,2.591 -1.11,3.729c-0.74,1.138 -1.865,2.049 -3.373,2.735c-1.509,0.686 -3.414,1.029 -5.717,1.029Z" style="fill-rule:nonzero;"/><path d="M85.74,70.148l0,-25.2l10.299,0c3.363,0 6,0.795 7.911,2.384c1.911,1.589 2.867,3.785 2.867,6.588c0,1.839 -0.431,3.424 -1.294,4.755c-0.863,1.331 -2.095,2.353 -3.696,3.065c-1.601,0.713 -3.515,1.069 -5.742,1.069l-7.761,0l2.087,-2.113l0,9.452l-4.672,0Zm16.463,0l-6.38,-9.149l5.019,0l6.42,9.149l-5.06,0Zm-11.791,-8.954l-2.087,-2.254l7.566,0c2.053,0 3.603,-0.442 4.647,-1.325c1.045,-0.883 1.567,-2.115 1.567,-3.696c0,-1.602 -0.522,-2.839 -1.567,-3.712c-1.045,-0.873 -2.594,-1.309 -4.647,-1.309l-7.566,0l2.087,-2.285l0,14.58Z" style="fill-rule:nonzero;"/><path d="M111.339,70.148l0,-25.2l18.384,0l0,3.932l-13.731,0l0,17.336l14.23,0l0,3.932l-18.883,0Zm4.297,-10.88l0,-3.832l12.548,0l0,3.832l-12.548,0Z" style="fill-rule:nonzero;"/><path d="M142.55,70.505c-1.966,0 -3.849,-0.282 -5.65,-0.845c-1.801,-0.564 -3.233,-1.292 -4.296,-2.185l1.639,-3.622c1.012,0.801 2.261,1.463 3.747,1.988c1.486,0.524 3.009,0.787 4.569,0.787c1.317,0 2.382,-0.143 3.195,-0.428c0.813,-0.286 1.411,-0.677 1.794,-1.173c0.383,-0.497 0.575,-1.056 0.575,-1.678c0,-0.77 -0.273,-1.386 -0.819,-1.848c-0.546,-0.463 -1.259,-0.836 -2.139,-1.12c-0.88,-0.284 -1.854,-0.544 -2.922,-0.78c-1.068,-0.235 -2.136,-0.516 -3.205,-0.841c-1.069,-0.326 -2.044,-0.749 -2.924,-1.269c-0.88,-0.521 -1.593,-1.21 -2.139,-2.068c-0.546,-0.858 -0.819,-1.959 -0.819,-3.303c0,-1.372 0.365,-2.627 1.095,-3.765c0.73,-1.138 1.844,-2.049 3.344,-2.733c1.5,-0.684 3.399,-1.027 5.699,-1.027c1.516,0 3.018,0.19 4.507,0.571c1.489,0.381 2.789,0.933 3.9,1.656l-1.49,3.648c-1.123,-0.687 -2.282,-1.191 -3.477,-1.514c-1.195,-0.323 -2.355,-0.484 -3.48,-0.484c-1.276,0 -2.321,0.156 -3.135,0.467c-0.814,0.311 -1.407,0.723 -1.778,1.234c-0.371,0.512 -0.557,1.089 -0.557,1.732c0,0.766 0.273,1.38 0.819,1.841c0.546,0.461 1.259,0.828 2.139,1.1c0.88,0.272 1.855,0.531 2.924,0.775c1.069,0.244 2.137,0.524 3.205,0.839c1.068,0.315 2.042,0.728 2.922,1.238c0.88,0.51 1.593,1.194 2.139,2.05c0.546,0.857 0.819,1.945 0.819,3.265c0,1.348 -0.37,2.591 -1.11,3.729c-0.74,1.138 -1.865,2.049 -3.373,2.735c-1.509,0.686 -3.414,1.029 -5.717,1.029Z" style="fill-rule:nonzero;"/><path d="M156.682,70.148l0,-25.2l18.384,0l0,3.932l-13.731,0l0,17.336l14.23,0l0,3.932l-18.883,0Zm4.297,-10.88l0,-3.832l12.548,0l0,3.832l-12.548,0Z" style="fill-rule:nonzero;"/><path d="M176.514,70.148l11.329,-25.2l4.622,0l11.361,25.2l-4.898,0l-9.735,-22.704l1.87,0l-9.735,22.704l-4.816,0Zm5.235,-5.834l1.251,-3.675l13.598,0l1.282,3.675l-16.131,0Z" style="fill-rule:nonzero;"/><path d="M206.323,70.148l0,-25.2l10.299,0c3.363,0 6,0.795 7.911,2.384c1.911,1.589 2.867,3.785 2.867,6.588c0,1.839 -0.431,3.424 -1.294,4.755c-0.863,1.331 -2.095,2.353 -3.696,3.065c-1.601,0.713 -3.515,1.069 -5.742,1.069l-7.761,0l2.087,-2.113l0,9.452l-4.672,0Zm16.463,0l-6.38,-9.149l5.019,0l6.42,9.149l-5.06,0Zm-11.791,-8.954l-2.087,-2.254l7.566,0c2.053,0 3.603,-0.442 4.647,-1.325c1.045,-0.883 1.567,-2.115 1.567,-3.696c0,-1.602 -0.522,-2.839 -1.567,-3.712c-1.045,-0.873 -2.594,-1.309 -4.647,-1.309l-7.566,0l2.087,-2.285l0,14.58Z" style="fill-rule:nonzero;"/><path d="M243.574,70.505c-1.932,0 -3.72,-0.318 -5.363,-0.954c-1.643,-0.636 -3.068,-1.537 -4.276,-2.702c-1.208,-1.166 -2.149,-2.537 -2.824,-4.113c-0.675,-1.577 -1.013,-3.306 -1.013,-5.187c0,-1.881 0.338,-3.61 1.013,-5.187c0.675,-1.577 1.622,-2.948 2.84,-4.113c1.218,-1.166 2.649,-2.066 4.292,-2.702c1.643,-0.636 3.431,-0.954 5.363,-0.954c2.054,0 3.936,0.354 5.646,1.061c1.709,0.707 3.146,1.752 4.311,3.133l-3.013,2.876c-0.911,-0.999 -1.932,-1.745 -3.062,-2.24c-1.13,-0.495 -2.353,-0.743 -3.669,-0.743c-1.306,0 -2.507,0.217 -3.603,0.651c-1.096,0.434 -2.048,1.047 -2.857,1.84c-0.808,0.792 -1.435,1.73 -1.88,2.813c-0.445,1.083 -0.667,2.272 -0.667,3.566c0,1.295 0.222,2.483 0.667,3.566c0.445,1.083 1.071,2.021 1.88,2.813c0.808,0.792 1.761,1.405 2.857,1.84c1.096,0.434 2.297,0.651 3.603,0.651c1.316,0 2.539,-0.248 3.669,-0.743c1.13,-0.495 2.15,-1.252 3.062,-2.272l3.013,2.876c-1.164,1.378 -2.601,2.427 -4.311,3.146c-1.709,0.719 -3.602,1.079 -5.677,1.079Z" style="fill-rule:nonzero;"/><path d="M274.736,70.148l0,-25.2l4.672,0l0,25.2l-4.672,0Zm-17.692,0l0,-25.2l4.672,0l0,25.2l-4.672,0Zm4.284,-10.793l0,-4.006l13.764,0l0,4.006l-13.764,0Z" style="fill-rule:nonzero;"/><path d="M302.487,70.505c-1.966,0 -3.849,-0.282 -5.65,-0.845c-1.801,-0.564 -3.233,-1.292 -4.296,-2.185l1.639,-3.622c1.012,0.801 2.261,1.463 3.747,1.988c1.487,0.524 3.009,0.787 4.569,0.787c1.317,0 2.382,-0.143 3.195,-0.428c0.813,-0.286 1.411,-0.677 1.794,-1.173c0.383,-0.497 0.575,-1.056 0.575,-1.678c0,-0.77 -0.273,-1.386 -0.819,-1.848c-0.546,-0.463 -1.259,-0.836 -2.139,-1.12c-0.88,-0.284 -1.854,-0.544 -2.922,-0.78c-1.068,-0.235 -2.136,-0.516 -3.205,-0.841c-1.069,-0.326 -2.044,-0.749 -2.924,-1.269c-0.88,-0.521 -1.593,-1.21 -2.139,-2.068c-0.546,-0.858 -0.819,-1.959 -0.819,-3.303c0,-1.372 0.365,-2.627 1.095,-3.765c0.73,-1.138 1.844,-2.049 3.344,-2.733c1.5,-0.684 3.399,-1.027 5.699,-1.027c1.516,0 3.018,0.19 4.507,0.571c1.489,0.381 2.789,0.933 3.9,1.656l-1.49,3.648c-1.123,-0.687 -2.282,-1.191 -3.477,-1.514c-1.195,-0.323 -2.355,-0.484 -3.48,-0.484c-1.276,0 -2.321,0.156 -3.135,0.467c-0.815,0.311 -1.407,0.723 -1.778,1.234c-0.371,0.512 -0.557,1.089 -0.557,1.732c0,0.766 0.273,1.38 0.819,1.841c0.546,0.461 1.259,0.828 2.139,1.1c0.88,0.272 1.855,0.531 2.924,0.775c1.069,0.244 2.137,0.524 3.205,0.839c1.068,0.315 2.042,0.728 2.922,1.238c0.88,0.51 1.593,1.194 2.139,2.05c0.546,0.857 0.819,1.945 0.819,3.265c0,1.348 -0.37,2.591 -1.11,3.729c-0.74,1.138 -1.865,2.049 -3.373,2.735c-1.509,0.686 -3.414,1.029 -5.717,1.029Z" style="fill-rule:nonzero;"/><path d="M327.425,70.505c-3.446,0 -6.144,-0.971 -8.096,-2.913c-1.951,-1.942 -2.927,-4.755 -2.927,-8.439l0,-14.205l4.672,0l0,14.047c0,2.589 0.557,4.473 1.671,5.653c1.114,1.18 2.687,1.77 4.72,1.77c2.036,0 3.61,-0.59 4.722,-1.77c1.112,-1.18 1.669,-3.065 1.669,-5.653l0,-14.047l4.591,0l0,14.205c0,3.684 -0.975,6.497 -2.926,8.439c-1.951,1.942 -4.65,2.913 -8.096,2.913Z" style="fill-rule:nonzero;"/><path d="M344.311,70.148l0,-25.2l10.346,0c2.227,0 4.141,0.358 5.742,1.074c1.601,0.716 2.833,1.746 3.696,3.09c0.863,1.345 1.294,2.947 1.294,4.807c0,1.839 -0.431,3.431 -1.294,4.773c-0.863,1.343 -2.095,2.373 -3.696,3.09c-1.601,0.717 -3.515,1.076 -5.742,1.076l-7.761,0l2.087,-2.163l0,9.452l-4.672,0Zm4.672,-8.954l-2.087,-2.285l7.566,0c2.053,0 3.603,-0.436 4.647,-1.309c1.045,-0.873 1.567,-2.1 1.567,-3.68c0,-1.602 -0.522,-2.839 -1.567,-3.712c-1.045,-0.873 -2.594,-1.309 -4.647,-1.309l-7.566,0l2.087,-2.285l0,14.58Z" style="fill-rule:nonzero;"/><path d="M369.383,70.148l0,-25.2l10.346,0c2.227,0 4.141,0.358 5.742,1.074c1.601,0.716 2.833,1.746 3.696,3.09c0.863,1.345 1.294,2.947 1.294,4.807c0,1.839 -0.431,3.431 -1.294,4.773c-0.863,1.343 -2.095,2.373 -3.696,3.09c-1.601,0.717 -3.515,1.076 -5.742,1.076l-7.761,0l2.087,-2.163l0,9.452l-4.672,0Zm4.672,-8.954l-2.087,-2.285l7.566,0c2.054,0 3.603,-0.436 4.647,-1.309c1.045,-0.873 1.567,-2.1 1.567,-3.68c0,-1.602 -0.522,-2.839 -1.567,-3.712c-1.045,-0.873 -2.594,-1.309 -4.647,-1.309l-7.566,0l2.087,-2.285l0,14.58Z" style="fill-rule:nonzero;"/><path d="M394.456,70.148l0,-25.2l4.672,0l0,21.245l13.163,0l0,3.955l-17.835,0Z" style="fill-rule:nonzero;"/><path d="M418.828,70.148l0,-9.955l1.067,2.851l-10.947,-18.096l4.983,0l8.806,14.582l-2.806,0l8.846,-14.582l4.603,0l-10.937,18.096l1.058,-2.851l0,9.955l-4.672,0Z" style="fill-rule:nonzero;"/></g></g></svg>