<svg width="64" height="64" viewBox="0 0 85 71" fill="none" xmlns="http://www.w3.org/2000/svg">
  <g fill="#0B0B0B" fill-rule="nonzero">
    <path d="M7.17,44.283c-4.313,-1.365 -7.223,-5.307 -7.169,-9.712c0.055,-4.431 3.533,-8.898 8.223,-9.561c2.562,-0.362 5.001,-0.084 7.175,1.393c1.859,1.264 3.195,2.978 3.842,5.158c0.173,0.583 0.449,0.76 1.045,0.753c2.922,-0.033 5.845,-0.033 8.768,-0.012c0.601,0.004 0.87,-0.216 1.055,-0.782c1.52,-4.649 6.464,-7.461 11.259,-6.568c3.854,0.718 6.341,2.978 7.768,6.508c0.262,0.649 0.633,0.823 1.226,0.825c1.103,0.004 2.206,0.013 3.309,0.014c1.709,0.002 3.419,-0.001 5.128,-0.004c0.992,-0.002 0.994,-0.002 1.308,-0.932c0.683,-2.022 1.93,-3.632 3.665,-4.839c5.616,-3.907 13.502,-0.913 15.145,5.73c1.374,5.559 -2.305,11.241 -7.914,12.218c-4.433,0.773 -8.563,-1.424 -10.585,-5.61c-0.269,-0.556 -0.326,-1.349 -0.854,-1.611c-0.489,-0.242 -1.185,-0.073 -1.789,-0.074c-2.5,-0.003 -5,0.016 -7.499,-0.016c-0.605,-0.008 -0.922,0.169 -1.138,0.752c-0.988,2.658 -2.801,4.61 -5.346,5.816c-3.393,1.609 -7.911,1.293 -10.987,-1.758c-1.237,-1.227 -2.247,-2.571 -2.822,-4.218c-0.153,-0.438 -0.406,-0.582 -0.857,-0.58c-3.014,0.013 -6.029,0.012 -9.044,-0.006c-0.48,-0.003 -0.691,0.17 -0.872,0.621c-1.498,3.732 -4.093,6.175 -8.182,6.782c-1.284,0.191 -2.564,0.101 -3.857,-0.288Z"/>
    <path d="M12.718,6.122c1.567,-3.406 4.099,-5.513 7.826,-6.004c6.064,-0.798 10.199,3.537 11.095,7.482c0.596,2.625 0.184,5.111 -1.145,7.434c-0.267,0.466 -0.215,0.761 0.087,1.165c1.673,2.235 3.319,4.491 4.976,6.738c0.441,0.598 0.436,0.732 -0.207,1.102c-0.924,0.532 -1.822,1.102 -2.698,1.709c-0.618,0.428 -0.65,0.416 -1.095,-0.179c-1.486,-1.986 -2.968,-3.975 -4.451,-5.962c-0.565,-0.756 -0.565,-0.756 -1.415,-0.377c-4.409,1.968 -9.744,0.239 -12.243,-3.948c-1.012,-1.696 -1.599,-3.508 -1.545,-5.487c0.035,-1.253 0.294,-2.475 0.815,-3.673Z"/>
    <path d="M44.595,24.487c-1.276,-0.731 -1.285,-0.737 -0.487,-1.876c1.443,-2.062 2.877,-4.132 4.362,-6.164c0.426,-0.583 0.418,-1.081 0.112,-1.671c-0.518,-1 -0.912,-2.047 -1.092,-3.164c-0.929,-5.74 2.923,-10.401 7.789,-11.398c5.237,-1.073 10.27,1.985 11.695,7.129c0.955,3.447 0.095,6.573 -2.19,9.255c-3.006,3.528 -7.423,4.239 -11.477,2.569c-0.538,-0.221 -0.81,-0.108 -1.134,0.349c-1.479,2.082 -2.985,4.144 -4.56,6.156c-0.332,0.424 -0.597,0.423 -1.002,0.136c-0.644,-0.456 -1.318,-0.869 -2.014,-1.321Z"/>
    <path d="M24.33,69.154c-4.883,1.1 -8.881,-1.114 -11.084,-4.85c-3.274,-5.553 -0.184,-13.726 7.312,-14.696c1.906,-0.247 3.74,-0 5.496,0.764c0.439,0.191 0.661,0.061 0.91,-0.282c1.503,-2.066 3.019,-4.121 4.533,-6.179c0.434,-0.59 0.459,-0.604 1.045,-0.206c0.93,0.631 1.92,1.155 2.907,1.687c0.175,0.094 0.377,0.155 0.51,0.364c-0.129,0.395 -0.431,0.697 -0.673,1.032c-1.562,2.159 -3.125,4.316 -4.707,6.461c-0.287,0.388 -0.339,0.707 -0.092,1.144c0.972,1.727 1.563,3.561 1.426,5.575c-0.297,4.368 -3.304,8.025 -7.583,9.188Z"/>
    <path d="M47.735,43.963c1.521,2.009 3.026,3.981 4.509,5.97c0.283,0.38 0.572,0.547 1.022,0.344c1.847,-0.834 3.809,-0.687 5.751,-0.64c1.189,0.029 2.251,0.55 3.244,1.143c3.354,2.004 5.069,5.004 5.049,8.894c-0.024,4.559 -3.645,8.835 -8.118,9.575c-6.342,1.05 -10.942,-3.318 -11.734,-8.319c-0.314,-1.98 -0.079,-3.947 0.898,-5.726c0.583,-1.061 0.586,-1.853 -0.224,-2.848c-1.553,-1.907 -2.945,-3.945 -4.396,-5.935c-0.487,-0.668 -0.476,-0.689 0.264,-1.08c0.864,-0.457 1.635,-1.057 2.455,-1.581c0.716,-0.457 0.718,-0.454 1.281,0.203Z"/>
  </g>
</svg>
